<svg xmlns="http://www.w3.org/2000/svg" width="1746" height="838" viewBox="0 0 1746 838" fill="none"><g clip-path="url(#clip0_220_841)"><path d="M1730.2 265.217C1732.32 251.773 1731.7 238.04 1728.39 224.84C1725.08 211.64 1719.14 199.242 1710.93 188.387C1694.28 167.348 1670.15 153.553 1643.57 149.882C1617 146.211 1590.03 152.948 1568.3 168.686L1516.57 205.119C1514.78 206.409 1512.75 207.325 1510.6 207.811C1508.45 208.297 1506.23 208.344 1504.06 207.948C1501.02 207.425 1498.19 206.077 1495.87 204.051C1493.55 202.026 1491.83 199.401 1490.9 196.463C1489.97 193.526 1489.87 190.39 1490.6 187.398C1491.34 184.406 1492.88 181.673 1495.06 179.5C1534.55 140.293 1540.01 93.3791 1509.84 50.6284C1494.37 28.1708 1470.63 12.7626 1443.82 7.78187C1417.01 2.80111 1389.32 8.65417 1366.82 24.0579L1096.07 215.145C1092.24 217.883 1087.92 219.833 1083.34 220.883C1078.76 221.934 1074.01 222.063 1069.38 221.263C1064.75 220.463 1060.32 218.751 1056.36 216.225C1052.4 213.699 1048.97 210.41 1046.29 206.55C1042.55 201.043 1040.38 194.615 1040.03 187.964C1039.67 181.313 1041.15 174.692 1044.29 168.818C1050.67 155.643 1053.03 140.875 1051.06 126.366C1049.08 111.858 1042.87 98.2549 1033.2 87.2635C1020.53 73.5895 1003.31 65.012 984.764 63.1434C966.22 61.2747 947.632 66.2436 932.494 77.1159L797.407 172.567C755.049 202.357 740.752 244.705 761.16 280.171C764.26 285.682 768.059 290.77 772.462 295.308C784.809 308.031 801.295 315.923 818.948 317.56C836.602 319.197 854.258 314.472 868.734 304.236L897.039 284.312C903.958 279.407 912.29 276.897 920.768 277.165C929.245 277.433 937.403 280.463 943.999 285.796C950.594 291.128 955.267 298.47 957.304 306.703C959.342 314.936 958.633 323.61 955.286 331.403C947.318 348.614 944.345 367.717 946.709 386.535C949.072 405.354 956.675 423.129 968.652 437.835C985.59 457.885 1009.5 470.773 1035.56 473.903C1061.62 477.033 1087.89 470.172 1109.1 454.703L1338.27 292.836C1340.21 291.429 1342.41 290.429 1344.75 289.895C1347.08 289.361 1349.5 289.305 1351.85 289.731C1356.64 290.596 1360.9 293.288 1363.74 297.238C1365.97 300.474 1367.11 304.34 1366.99 308.27C1366.86 312.2 1365.49 315.987 1363.06 319.079C1349.34 336.854 1341.89 358.672 1341.86 381.127C1341.84 403.583 1349.26 425.414 1362.94 443.216C1379.74 463.829 1403.77 477.262 1430.13 480.777C1456.49 484.291 1483.2 477.624 1504.81 462.133L1688.41 332.43C1699.54 324.621 1708.99 314.642 1716.17 303.092C1723.35 291.542 1728.13 278.659 1730.2 265.217Z" fill="url(#paint0_linear_220_841)" fill-opacity="0.6"></path><path d="M1008.2 612.217C1010.32 598.773 1009.7 585.04 1006.39 571.84C1003.08 558.64 997.139 546.242 988.93 535.387C972.282 514.348 948.15 500.553 921.573 496.882C894.996 493.211 868.028 499.948 846.299 515.686L794.57 552.119C792.783 553.409 790.754 554.325 788.604 554.811C786.454 555.297 784.228 555.344 782.06 554.948C779.024 554.425 776.19 553.077 773.869 551.051C771.548 549.026 769.829 546.401 768.9 543.463C767.971 540.526 767.868 537.39 768.602 534.398C769.337 531.406 770.88 528.673 773.063 526.5C812.551 487.293 818.014 440.379 787.842 397.628C772.375 375.171 748.633 359.763 721.823 354.782C695.013 349.801 667.322 355.654 644.82 371.058L374.065 562.145C370.245 564.883 365.918 566.833 361.337 567.883C356.756 568.934 352.012 569.063 347.381 568.263C342.749 567.463 338.323 565.751 334.36 563.225C330.396 560.699 326.974 557.41 324.293 553.55C320.547 548.043 318.38 541.615 318.026 534.964C317.672 528.313 319.145 521.692 322.285 515.818C328.673 502.643 331.028 487.875 329.055 473.366C327.082 458.858 320.87 445.255 311.196 434.264C298.531 420.589 281.308 412.012 262.764 410.143C244.22 408.275 225.632 413.244 210.494 424.116L75.4075 519.567C33.0486 549.357 18.7523 591.705 39.1601 627.171C42.2598 632.682 46.0586 637.77 50.4623 642.308C62.8086 655.031 79.2954 662.923 96.9484 664.56C114.602 666.197 132.258 661.472 146.734 651.236L175.039 631.312C181.958 626.407 190.29 623.897 198.768 624.165C207.245 624.433 215.403 627.463 221.999 632.796C228.594 638.128 233.267 645.47 235.304 653.703C237.342 661.936 236.633 670.61 233.286 678.403C225.318 695.614 222.345 714.717 224.709 733.535C227.072 752.354 234.675 770.129 246.652 784.835C263.59 804.885 287.496 817.773 313.556 820.903C339.616 824.033 365.894 817.172 387.097 801.703L616.274 639.836C618.211 638.429 620.412 637.429 622.745 636.895C625.079 636.361 627.496 636.305 629.851 636.731C634.638 637.596 638.901 640.288 641.739 644.238C643.971 647.474 645.109 651.34 644.987 655.27C644.865 659.2 643.488 662.987 641.06 666.079C627.338 683.854 619.886 705.672 619.865 728.127C619.844 750.583 627.255 772.414 640.943 790.216C657.743 810.829 681.771 824.262 708.13 827.777C734.489 831.291 761.196 824.624 782.811 809.133L966.407 679.43C977.543 671.621 986.986 661.642 994.169 650.092C1001.35 638.542 1006.13 625.659 1008.2 612.217Z" fill="url(#paint1_linear_220_841)" fill-opacity="0.6"></path></g><defs><linearGradient id="paint0_linear_220_841" x1="1262.5" y1="530" x2="1284" y2="-174" gradientUnits="userSpaceOnUse"><stop stop-color="#FAFAFA"></stop><stop offset="1" stop-color="#E7FAFA"></stop></linearGradient><linearGradient id="paint1_linear_220_841" x1="454.662" y1="786.179" x2="449.944" y2="376.001" gradientUnits="userSpaceOnUse"><stop stop-color="#FBF5F8"></stop><stop offset="1" stop-color="white"></stop></linearGradient><clipPath id="clip0_220_841"><rect width="1746" height="838" fill="white"></rect></clipPath></defs></svg>